<svg width="22" height="22" viewBox="0 0 22 22" fill="none" xmlns="http://www.w3.org/2000/svg">
<path fill-rule="evenodd" clip-rule="evenodd" d="M20.4543 0.145041C20.6477 -0.048347 20.9612 -0.048347 21.1545 0.145041C21.3478 0.338443 21.3479 0.651905 21.1545 0.845236L11.6995 10.2993L21.8547 20.4536C22.0481 20.647 22.0481 20.9604 21.8547 21.1538C21.6613 21.3472 21.3479 21.3472 21.1545 21.1538L10.9993 10.9995L0.844975 21.1538C0.651594 21.3471 0.338124 21.3471 0.144779 21.1538C-0.0481824 20.9605 -0.0483371 20.6469 0.144779 20.4536L10.2991 10.2993L0.844975 0.845236C0.651835 0.652012 0.652124 0.338444 0.844975 0.145041C1.03834 -0.0483209 1.35178 -0.0482686 1.54517 0.145041L10.9993 9.59914L20.4543 0.145041Z" fill="#222222"/>
</svg>
