<svg width="70" height="70" viewBox="0 0 70 70" fill="none" xmlns="http://www.w3.org/2000/svg">
<path d="M34.9941 5.83337L35.3382 5.85379L35.5103 5.87712L35.6882 5.91504L36.012 6.01421C36.2356 6.09664 36.4482 6.20636 36.6449 6.34087L36.9482 6.58004L37.692 7.21587C43.5758 12.1029 51.012 14.7272 58.6599 14.6155L59.6574 14.5863C60.3095 14.5565 60.9528 14.7464 61.4843 15.1256C62.0157 15.5047 62.4046 16.0512 62.5886 16.6775C64.0219 21.553 64.4605 26.6668 63.8783 31.7151C63.2962 36.7633 61.7052 41.6431 59.1999 46.0644C56.6946 50.4856 53.3261 54.3582 49.2946 57.4519C45.2632 60.5456 40.6509 62.7974 35.732 64.0734C35.2519 64.1979 34.7479 64.1979 34.2678 64.0734C29.3486 62.7977 24.7361 60.5462 20.7042 57.4526C16.6724 54.359 13.3036 50.4865 10.798 46.0652C8.29247 41.6439 6.70123 36.764 6.1189 31.7156C5.53657 26.6672 5.97503 21.5532 7.40823 16.6775C7.5923 16.0512 7.98118 15.5047 8.51262 15.1256C9.04406 14.7464 9.68733 14.5565 10.3395 14.5863C18.3237 14.9513 26.1567 12.3229 32.3049 7.21587L33.072 6.55962L33.352 6.34087C33.5487 6.20636 33.7613 6.09664 33.9849 6.01421L34.3116 5.91504C34.4259 5.88743 34.5418 5.86697 34.6586 5.85379L34.9941 5.83337Z" fill="#F43636"/>
<path d="M35 28C36.6569 28 38 29.3431 38 31C38 32.3057 37.1645 33.413 36 33.8252V40C36 40.5523 35.5523 41 35 41C34.4477 41 34 40.5523 34 40V33.8252C32.8355 33.413 32 32.3057 32 31C32 29.3431 33.3431 28 35 28Z" fill="white"/>
</svg>
