<svg width="23" height="17" viewBox="0 0 23 17" fill="none" xmlns="http://www.w3.org/2000/svg">
<path d="M4.31579 13.8571C4.31579 14.4255 4.54868 14.9705 4.96324 15.3724C5.37779 15.7742 5.94005 16 6.52632 16C7.11258 16 7.67484 15.7742 8.08939 15.3724C8.50395 14.9705 8.73684 14.4255 8.73684 13.8571M4.31579 13.8571C4.31579 13.2888 4.54868 12.7438 4.96324 12.3419C5.37779 11.9401 5.94005 11.7143 6.52632 11.7143C7.11258 11.7143 7.67484 11.9401 8.08939 12.3419C8.50395 12.7438 8.73684 13.2888 8.73684 13.8571M4.31579 13.8571H2.10526V9.57143M8.73684 13.8571H15.3684M15.3684 13.8571C15.3684 14.4255 15.6013 14.9705 16.0159 15.3724C16.4304 15.7742 16.9927 16 17.5789 16C18.1652 16 18.7275 15.7742 19.142 15.3724C19.5566 14.9705 19.7895 14.4255 19.7895 13.8571M15.3684 13.8571C15.3684 13.2888 15.6013 12.7438 16.0159 12.3419C16.4304 11.9401 16.9927 11.7143 17.5789 11.7143C18.1652 11.7143 18.7275 11.9401 19.142 12.3419C19.5566 12.7438 19.7895 13.2888 19.7895 13.8571M19.7895 13.8571H22V7.42857M1 1H13.1579V13.8571M22 7.42857H13.1579M22 7.42857L18.6842 2.07143H13.1579M2.10526 5.28571H6.52632" stroke="#F43636" stroke-width="2" stroke-linecap="round" stroke-linejoin="round"/>
</svg>
