<svg width="14" height="17" viewBox="0 0 14 17" fill="none" xmlns="http://www.w3.org/2000/svg">
<path d="M1 3.36842C1 4.67658 3.52847 5.73684 6.64706 5.73684C9.76565 5.73684 12.2941 4.67658 12.2941 3.36842M1 3.36842C1 2.06026 3.52847 1 6.64706 1C9.76565 1 12.2941 2.06026 12.2941 3.36842M1 3.36842V8.10526M12.2941 3.36842V6.52632M1 8.10526C1 9.41342 3.52847 10.4737 6.64706 10.4737C6.94 10.4737 7.22729 10.4642 7.50824 10.4461M1 8.10526V12.8421C1 14.1503 3.52847 15.2105 6.64706 15.2105C6.89553 15.2105 7.13976 15.2034 7.37906 15.1908M13 10.4737H11.2353C10.9545 10.4737 10.6852 10.5984 10.4866 10.8205C10.288 11.0426 10.1765 11.3438 10.1765 11.6579C10.1765 11.972 10.288 12.2732 10.4866 12.4953C10.6852 12.7173 10.9545 12.8421 11.2353 12.8421H11.9412C12.222 12.8421 12.4913 12.9669 12.6899 13.189C12.8884 13.411 13 13.7122 13 14.0263C13 14.3404 12.8884 14.6416 12.6899 14.8637C12.4913 15.0858 12.222 15.2105 11.9412 15.2105H10.1765M11.5882 15.2105V16M11.5882 9.68421V10.4737" stroke="#F43636" stroke-width="2" stroke-linecap="round" stroke-linejoin="round"/>
</svg>
