<svg width="17" height="17" viewBox="0 0 17 17" fill="none" xmlns="http://www.w3.org/2000/svg">
<path d="M10.4737 8.89474V12.0526M8.89474 10.4737H12.0526M16 16L13.6316 13.6316M3.36842 12.8421H2.57895C2.16018 12.8421 1.75857 12.6758 1.46246 12.3796C1.16635 12.0835 1 11.6819 1 11.2632V10.4737M1 7.31579V6.52632M1 3.36842V2.57895C1 2.16018 1.16635 1.75857 1.46246 1.46246C1.75857 1.16635 2.16018 1 2.57895 1H3.36842M6.52632 1H7.31579M10.4737 1H11.2632C11.6819 1 12.0835 1.16635 12.3796 1.46246C12.6758 1.75857 12.8421 2.16018 12.8421 2.57895V3.36842M6.52632 10.4737C6.52632 11.5206 6.9422 12.5246 7.68247 13.2649C8.42275 14.0052 9.42678 14.4211 10.4737 14.4211C11.5206 14.4211 12.5246 14.0052 13.2649 13.2649C14.0052 12.5246 14.4211 11.5206 14.4211 10.4737C14.4211 9.42678 14.0052 8.42275 13.2649 7.68247C12.5246 6.9422 11.5206 6.52632 10.4737 6.52632C9.42678 6.52632 8.42275 6.9422 7.68247 7.68247C6.9422 8.42275 6.52632 9.42678 6.52632 10.4737Z" stroke="#F43636" stroke-width="2" stroke-linecap="round" stroke-linejoin="round"/>
</svg>
