<svg width="14" height="17" viewBox="0 0 14 17" fill="none" xmlns="http://www.w3.org/2000/svg">
<path d="M8.71429 1V4.33333C8.71429 4.55435 8.80459 4.76631 8.96534 4.92259C9.12608 5.07887 9.3441 5.16667 9.57143 5.16667H13M8.71429 1H2.71429C2.25963 1 1.82359 1.17559 1.5021 1.48816C1.18061 1.80072 1 2.22464 1 2.66667V14.3333C1 14.7754 1.18061 15.1993 1.5021 15.5118C1.82359 15.8244 2.25963 16 2.71429 16H11.2857C11.7404 16 12.1764 15.8244 12.4979 15.5118C12.8194 15.1993 13 14.7754 13 14.3333V5.16667M8.71429 1L13 5.16667M4.42857 11L6.14286 12.6667L9.57143 9.33333" stroke="#F43636" stroke-width="2" stroke-linecap="round" stroke-linejoin="round"/>
</svg>
